<svg xmlns="http://www.w3.org/2000/svg" viewBox="0 0 64 64" fill="none">
  <defs>
    <linearGradient id="g3" x1="8" y1="6" x2="56" y2="58" gradientUnits="userSpaceOnUse">
      <stop offset="0%" stop-color="#ff4fa3"/>
      <stop offset="100%" stop-color="#9d4dff"/>
    </linearGradient>
  </defs>
  <path d="M22 22c-6-3-8-11 0-15 3-8 20-8 22 1 9 1 12 10 6 16 4 5 1 13-6 14-2 6-14 8-19 2-8 0-11-9-6-14-2-1-2-3 0-4z"
        fill="url(#g3)" fill-opacity="0.1" stroke="url(#g3)" stroke-width="1.6"/>
  <!-- circuit traces radiating out (robotic/AI motif) -->
  <path d="M14 14h6v6M50 14h-6v6M14 50h6v-6M50 50h-6v-6M8 32h8M56 32h-8" stroke="url(#g3)" stroke-width="1.3" stroke-linecap="round"/>
  <rect x="10" y="11" width="4" height="4" rx="1" fill="url(#g3)"/>
  <rect x="50" y="11" width="4" height="4" rx="1" fill="url(#g3)"/>
  <rect x="10" y="49" width="4" height="4" rx="1" fill="url(#g3)"/>
  <rect x="50" y="49" width="4" height="4" rx="1" fill="url(#g3)"/>
  <circle cx="6" cy="32" r="2" fill="#ff9ed4"/>
  <circle cx="58" cy="32" r="2" fill="#ff9ed4"/>
  <circle cx="32" cy="30" r="2.2" fill="#ffffff"/>
</svg>
