<svg xmlns="http://www.w3.org/2000/svg" viewBox="0 0 64 64" fill="none">
  <defs>
    <linearGradient id="g2" x1="10" y1="8" x2="54" y2="56" gradientUnits="userSpaceOnUse">
      <stop offset="0%" stop-color="#ff4fa3"/>
      <stop offset="100%" stop-color="#9d4dff"/>
    </linearGradient>
  </defs>
  <!-- doctor silhouette: head + shoulders -->
  <circle cx="32" cy="21" r="9" fill="url(#g2)" fill-opacity="0.14" stroke="url(#g2)" stroke-width="1.6"/>
  <path d="M14 54c1-12 8-18 18-18s17 6 18 18" fill="url(#g2)" fill-opacity="0.1" stroke="url(#g2)" stroke-width="1.6" stroke-linecap="round"/>
  <!-- brain overlay on chest -->
  <path d="M26 40c-3-1-4-5 0-7 1-4 9-4 10 0 4 1 5 5 1 7 1 3-2 6-4 5-3 3-6 1-6-1-3 0-4-2-1-4z"
        fill="#0a0613" fill-opacity="0.55" stroke="url(#g2)" stroke-width="1.1"/>
  <circle cx="27" cy="39" r="1.4" fill="#ff9ed4"/>
  <circle cx="36" cy="41" r="1.4" fill="#ff9ed4"/>
  <circle cx="31" cy="45" r="1.6" fill="#ffffff"/>
</svg>
