<svg xmlns="http://www.w3.org/2000/svg" viewBox="0 0 64 64" fill="none">
  <defs>
    <linearGradient id="g6" x1="8" y1="8" x2="56" y2="56" gradientUnits="userSpaceOnUse">
      <stop offset="0%" stop-color="#ff4fa3"/>
      <stop offset="100%" stop-color="#9d4dff"/>
    </linearGradient>
  </defs>
  <!-- neuron cell body -->
  <circle cx="32" cy="30" r="9" fill="url(#g6)" fill-opacity="0.14" stroke="url(#g6)" stroke-width="1.6"/>
  <!-- dendrite branches -->
  <path d="M25 24 15 16M25 24l-12 2M39 24l10-8M39 24l12 2M24 37 12 42M24 37l-10 8M40 37l10 5M40 37l12 6M32 39v14"
        stroke="url(#g6)" stroke-width="1.2" stroke-linecap="round" stroke-opacity="0.75"/>
  <circle cx="15" cy="16" r="1.6" fill="#ff9ed4"/>
  <circle cx="13" cy="26" r="1.6" fill="#ff9ed4"/>
  <circle cx="49" cy="8" r="1.6" fill="#ff9ed4"/>
  <circle cx="51" cy="26" r="1.6" fill="#ff9ed4"/>
  <circle cx="12" cy="42" r="1.6" fill="#ff9ed4"/>
  <circle cx="14" cy="45" r="1.6" fill="#ff9ed4"/>
  <circle cx="50" cy="42" r="1.6" fill="#ff9ed4"/>
  <circle cx="52" cy="43" r="1.6" fill="#ff9ed4"/>
  <circle cx="32" cy="53" r="1.6" fill="#ff9ed4"/>
  <circle cx="32" cy="30" r="2.4" fill="#ffffff"/>
</svg>
