<svg xmlns="http://www.w3.org/2000/svg" viewBox="0 0 64 64" fill="none">
  <defs>
    <linearGradient id="g7" x1="8" y1="12" x2="56" y2="52" gradientUnits="userSpaceOnUse">
      <stop offset="0%" stop-color="#ff4fa3"/>
      <stop offset="100%" stop-color="#9d4dff"/>
    </linearGradient>
  </defs>
  <!-- cupped hands -->
  <path d="M10 40c2 8 8 13 22 13s20-5 22-13c-4 3-9 4-13 2-2 3-6 4-9 2-3 2-7 1-9-2-4 2-9 1-13-2z"
        fill="url(#g7)" fill-opacity="0.12" stroke="url(#g7)" stroke-width="1.6" stroke-linejoin="round"/>
  <!-- small glowing brain cradled above -->
  <path d="M27 30c-3-1-4-5 0-7 1-3 8-3 9 0 3 1 4 5 1 7 1 2-2 5-4 4-2 2-5 1-5-1-2 0-3-2-1-3z"
        fill="#0a0613" fill-opacity="0.6" stroke="url(#g7)" stroke-width="1.1"/>
  <circle cx="28" cy="29" r="1.3" fill="#ff9ed4"/>
  <circle cx="35" cy="30" r="1.3" fill="#ff9ed4"/>
  <circle cx="31" cy="34" r="1.6" fill="#ffffff"/>
</svg>
