<svg xmlns="http://www.w3.org/2000/svg" viewBox="0 0 64 64" fill="none">
  <defs>
    <linearGradient id="g1" x1="8" y1="6" x2="56" y2="58" gradientUnits="userSpaceOnUse">
      <stop offset="0%" stop-color="#ff4fa3"/>
      <stop offset="100%" stop-color="#9d4dff"/>
    </linearGradient>
  </defs>
  <path d="M22 22c-6-3-8-11 0-15 3-8 20-8 22 1 9 1 12 10 6 16 4 5 1 13-6 14-2 6-14 8-19 2-8 0-11-9-6-14-2-1-2-3 0-4z"
        fill="url(#g1)" fill-opacity="0.12" stroke="url(#g1)" stroke-width="1.6"/>
  <path d="M32 14v34M24 20c5 3 5 9 0 12M40 20c-5 3-5 9 0 12M22 32c4 2 4 6 1 9M42 32c-4 2-4 6-1 9" stroke="url(#g1)" stroke-width="1.1" stroke-opacity="0.65" stroke-linecap="round"/>
  <circle cx="22" cy="22" r="1.8" fill="#ff9ed4"/>
  <circle cx="42" cy="20" r="1.8" fill="#ff9ed4"/>
  <circle cx="24" cy="44" r="1.8" fill="#ff9ed4"/>
  <circle cx="41" cy="42" r="1.8" fill="#ff9ed4"/>
  <circle cx="32" cy="30" r="2.2" fill="#ffffff"/>
</svg>
