<svg xmlns="http://www.w3.org/2000/svg" viewBox="0 0 64 64" fill="none">
  <defs>
    <linearGradient id="g8" x1="8" y1="6" x2="56" y2="58" gradientUnits="userSpaceOnUse">
      <stop offset="0%" stop-color="#ff4fa3"/>
      <stop offset="100%" stop-color="#9d4dff"/>
    </linearGradient>
  </defs>
  <!-- shield -->
  <path d="M32 8l18 6v14c0 14-8 22-18 28-10-6-18-14-18-28V14z"
        fill="url(#g8)" fill-opacity="0.12" stroke="url(#g8)" stroke-width="1.7" stroke-linejoin="round"/>
  <!-- brain protected inside -->
  <path d="M26 30c-3-1-4-5 0-7 1-3 8-3 9 0 3 1 4 5 1 7 1 2-2 5-4 4-2 2-5 1-5-1-2 0-3-2-1-3z"
        fill="#0a0613" fill-opacity="0.6" stroke="url(#g8)" stroke-width="1.1"/>
  <circle cx="27" cy="29" r="1.3" fill="#ff9ed4"/>
  <circle cx="34" cy="30" r="1.3" fill="#ff9ed4"/>
  <circle cx="30" cy="34" r="1.6" fill="#ffffff"/>
</svg>
