<svg xmlns="http://www.w3.org/2000/svg" viewBox="0 0 400 300" fill="none">
  <defs>
    <linearGradient id="bg" x1="0" y1="0" x2="400" y2="300" gradientUnits="userSpaceOnUse">
      <stop offset="0%" stop-color="#1a0e2e"/>
      <stop offset="100%" stop-color="#0a0613"/>
    </linearGradient>
    <linearGradient id="g" x1="140" y1="40" x2="280" y2="260" gradientUnits="userSpaceOnUse">
      <stop offset="0%" stop-color="#ff4fa3"/>
      <stop offset="100%" stop-color="#9d4dff"/>
    </linearGradient>
    <filter id="blur" x="-60%" y="-60%" width="220%" height="220%">
      <feGaussianBlur stdDeviation="28"/>
    </filter>
  </defs>
  <rect width="400" height="300" fill="url(#bg)"/>
  <ellipse cx="200" cy="150" rx="140" ry="115" fill="url(#g)" opacity="0.22" filter="url(#blur)"/>
  <path d="M200 54c-56 0-94 44-94 100 0 38 12 62 25 88 13 25 31 50 69 50s56-25 69-50c13-26 25-50 25-88 0-56-38-100-94-100z"
        fill="url(#g)" fill-opacity="0.14" stroke="url(#g)" stroke-width="2.2" stroke-linejoin="round"/>
  <path d="M280 134c19 6.5 31 25 31 50s-19 44-38 50M120 134c-19 6.5-31 25-31 50"
        stroke="url(#g)" stroke-width="1.8" stroke-linecap="round" stroke-opacity="0.7"/>
  <circle cx="168" cy="164" r="4" fill="#ffffff"/>
  <circle cx="232" cy="164" r="4" fill="#ffffff"/>
  <circle cx="300" cy="112" r="3.4" fill="#ff9ed4"/>
</svg>
