<svg xmlns="http://www.w3.org/2000/svg" viewBox="0 0 400 300" fill="none">
  <defs>
    <linearGradient id="bg" x1="0" y1="0" x2="400" y2="300" gradientUnits="userSpaceOnUse">
      <stop offset="0%" stop-color="#1a0e2e"/>
      <stop offset="100%" stop-color="#0a0613"/>
    </linearGradient>
    <linearGradient id="g" x1="110" y1="60" x2="300" y2="240" gradientUnits="userSpaceOnUse">
      <stop offset="0%" stop-color="#ff4fa3"/>
      <stop offset="100%" stop-color="#9d4dff"/>
    </linearGradient>
    <filter id="blur" x="-60%" y="-60%" width="220%" height="220%">
      <feGaussianBlur stdDeviation="28"/>
    </filter>
  </defs>
  <rect width="400" height="300" fill="url(#bg)"/>
  <ellipse cx="200" cy="150" rx="145" ry="115" fill="url(#g)" opacity="0.22" filter="url(#blur)"/>
  <rect x="100" y="90" width="200" height="140" rx="30" fill="url(#g)" fill-opacity="0.1" stroke="url(#g)" stroke-width="2.2"/>
  <path d="M132 190c14-14 24-30 30-46 4-10 10-18 18-24 10-8 22-12 34-10 12 2 22 10 26 22 6 16 2 32-10 44-14 14-32 22-52 26-16 3-32 2-46-12z"
        fill="url(#g)" fill-opacity="0.16" stroke="url(#g)" stroke-width="2" stroke-linejoin="round"/>
  <circle cx="256" cy="106" r="34" fill="#1a0e2e" stroke="url(#g)" stroke-width="2.2"/>
  <circle cx="256" cy="106" r="14" fill="none" stroke="url(#g)" stroke-width="1.8"/>
  <path d="M256 92v10M256 106h-10" stroke="#ffffff" stroke-width="2" stroke-linecap="round"/>
  <circle cx="150" cy="212" r="3.4" fill="#ff9ed4"/>
</svg>
