<svg xmlns="http://www.w3.org/2000/svg" viewBox="0 0 64 64" fill="none">
  <defs>
    <linearGradient id="g" x1="10" y1="6" x2="52" y2="58" gradientUnits="userSpaceOnUse">
      <stop offset="0%" stop-color="#ff4fa3"/>
      <stop offset="100%" stop-color="#9d4dff"/>
    </linearGradient>
  </defs>
  <path d="M32 8c-9 0-15 7-15 16 0 6 2 10 4 14 2 4 5 8 11 8s9-4 11-8c2-4 4-8 4-14 0-9-6-16-15-16z"
        fill="url(#g)" fill-opacity="0.14" stroke="url(#g)" stroke-width="1.6" stroke-linejoin="round"/>
  <path d="M44 22c3 1 5 4 5 8s-3 7-6 8M20 22c-3 1-5 4-5 8" stroke="url(#g)" stroke-width="1.3" stroke-linecap="round" stroke-opacity="0.7"/>
  <circle cx="27" cy="26" r="1.6" fill="#ffffff"/>
  <circle cx="37" cy="26" r="1.6" fill="#ffffff"/>
</svg>
