<svg xmlns="http://www.w3.org/2000/svg" viewBox="0 0 64 64" fill="none">
  <defs>
    <linearGradient id="g" x1="10" y1="6" x2="50" y2="58" gradientUnits="userSpaceOnUse">
      <stop offset="0%" stop-color="#ff4fa3"/>
      <stop offset="100%" stop-color="#9d4dff"/>
    </linearGradient>
  </defs>
  <path d="M32 8c-6 0-9 5-9 10 0 4 2 6 2 10 0 6-5 8-5 15 0 7 6 13 12 13s12-6 12-13c0-7-5-9-5-15 0-4 2-6 2-10 0-5-3-10-9-10z"
        fill="url(#g)" fill-opacity="0.14" stroke="url(#g)" stroke-width="1.6" stroke-linejoin="round"/>
  <path d="M22 30c3 1 6 1.5 10 1.5s7-.5 10-1.5M21 40c3.5 1.4 7 2 11 2s7.5-.6 11-2" stroke="url(#g)" stroke-width="1.3" stroke-opacity="0.65" stroke-linecap="round"/>
  <circle cx="32" cy="20" r="1.8" fill="#ffffff"/>
</svg>
