<svg xmlns="http://www.w3.org/2000/svg" viewBox="0 0 64 64" fill="none">
  <defs>
    <linearGradient id="g" x1="8" y1="8" x2="56" y2="54" gradientUnits="userSpaceOnUse">
      <stop offset="0%" stop-color="#ff4fa3"/>
      <stop offset="100%" stop-color="#9d4dff"/>
    </linearGradient>
  </defs>
  <path d="M24 12c-6 0-10 4-10 9-3 1-5 4-5 7s2 6 5 7c0 6 5 10 11 10h10c6 0 11-4 11-10 3-1 5-4 5-7s-2-6-5-7c0-5-4-9-10-9-2 0-4 .6-5.5 1.6C29 12.6 26.8 12 24 12z"
        fill="url(#g)" fill-opacity="0.14" stroke="url(#g)" stroke-width="1.6" stroke-linejoin="round"/>
  <path d="M24 20c2 1 2 4 0 5s-2 4 0 5M40 20c-2 1-2 4 0 5s2 4 0 5" stroke="url(#g)" stroke-width="1.2" stroke-linecap="round" stroke-opacity="0.7"/>
  <circle cx="46" cy="44" r="8" fill="#1a0e2e" stroke="url(#g)" stroke-width="1.6"/>
  <path d="M42.5 44l2.5 2.5 5-5" stroke="#ffffff" stroke-width="1.8" stroke-linecap="round" stroke-linejoin="round"/>
</svg>
